<?xml version="1.0" encoding="UTF-8"?>
<svg xmlns="http://www.w3.org/2000/svg" width="150" height="89" viewBox="0 0 150 89">
    <g fill="none" fill-rule="evenodd">
        <path fill="#000" d="M52.82 45.973a16.348 16.348 0 0 0-.063 3.226c.07.855.198 1.73.528 2.62.326.87.923 1.837 1.93 2.389 1.01.556 2.128.538 3.045.364.925-.191 1.75-.533 2.52-.92 1.537-.789 2.882-1.778 4.154-2.839 1.279-1.075 2.412-2.25 3.534-3.378l3.34-3.43c2.213-2.288 4.446-4.542 6.714-6.699.474-.447.955-.88 1.44-1.304l-.127.381c-.51 1.506-1.045 3.047-1.477 4.657-.409 1.624-.828 3.278-.647 5.276l.003.03a.876.876 0 0 0 .05.222c.076.21.15.485.503.852a1.682 1.682 0 0 0 1.555.442c.408-.1.596-.24.762-.35.157-.113.275-.22.375-.318a6.67 6.67 0 0 0 .87-1.092c.481-.757.766-1.333 1.13-1.96a50.21 50.21 0 0 1 2.275-3.573c.808-1.147 1.672-2.244 2.61-3.234.93-.986 1.96-1.88 3.024-2.466.527-.294 1.072-.471 1.495-.505.204-.009.361.022.436.056.076.036.083.042.112.084.02.064.05.115.01.383l-.135 1.115-.257 2.178a110.924 110.924 0 0 0-.444 4.402 27.002 27.002 0 0 0-.08 2.283c.005.394.02.792.071 1.218.056.424.12.869.354 1.403.12.264.297.571.614.844.31.278.77.45 1.142.466.758.03 1.207-.207 1.616-.396.791-.416 1.389-.897 1.98-1.384 1.172-.982 2.2-2.028 3.233-2.96 2.124-1.857 4.452-3.495 6.986-4.702 1.263-.593 2.577-1.133 3.901-1.442 1.33-.235 2.836-.439 4.244-.66a565.95 565.95 0 0 0 8.584-1.34.29.29 0 0 0 .241-.305.288.288 0 0 0-.307-.264c-2.888.225-5.774.475-8.656.744-1.463.14-2.838.237-4.371.416-1.515.267-2.938.73-4.317 1.321-2.752 1.182-5.277 2.817-7.595 4.691-1.164.968-2.209 1.965-3.29 2.813-.536.42-1.103.823-1.607 1.063-.115.058-.23.097-.319.12-.119-.321-.167-1.017-.15-1.643.01-.674.071-1.378.133-2.084.134-1.416.32-2.852.513-4.29l.296-2.161.148-1.053c.083-.447.104-1.153-.154-1.77a2.8 2.8 0 0 0-1.362-1.45c-.578-.284-1.157-.351-1.674-.34-1.027.055-1.875.377-2.625.761-1.5.782-2.678 1.837-3.755 2.938-1.072 1.11-2.023 2.294-2.904 3.515a48.968 48.968 0 0 0-1.832 2.765c.388-1.45.883-2.905 1.383-4.396.253-.768.515-1.528.74-2.386.1-.462.243-.821.226-1.635-.021-.205-.024-.518-.314-.986a1.677 1.677 0 0 0-1.49-.747c-.392.024-.606.117-.776.187-.18.078-.308.15-.433.223-.477.29-.811.575-1.124.833-.323.264-.64.529-.946.801a52.09 52.09 0 0 0-1.808 1.65c-2.36 2.225-4.518 4.593-6.697 6.926l-3.25 3.494c-1.099 1.157-2.156 2.301-3.296 3.303-1.138 1.013-2.354 1.953-3.629 2.654-1.245.7-2.7 1.138-3.515.692-.842-.385-1.352-1.849-1.48-3.307a14.415 14.415 0 0 1 .032-3.478c.856-.233 1.705-.52 2.531-.903 1.114-.507 2.19-1.226 3.032-2.212l-.04.045c1.196-1.213 2.174-2.682 2.477-4.518.061-.462.073-.962-.08-1.493-.156-.53-.51-1.078-1.132-1.365-.4-.17-.72-.143-.988-.108-.28.035-.51.11-.736.193a6.38 6.38 0 0 0-1.207.622c-2.878 1.96-4.701 5.044-5.497 8.344-.054.234-.091.472-.136.707-2.03.49-4.124.806-6.221 1.083-4.623.59-9.285 1.042-13.92 1.675a.257.257 0 0 0 .06.51c4.643-.506 9.299-.826 13.962-1.29 1.982-.208 3.97-.448 5.948-.844m6.663-8.877a5.1 5.1 0 0 1 .892-.499c.266-.128.638-.156.59-.143.107.041.267.195.337.425.08.238.098.557.061.885-.164 1.347-.969 2.727-1.977 3.781l-.014.016-.026.03c-1.057 1.308-2.654 2.118-4.355 2.687.63-2.814 2.198-5.526 4.492-7.182"/>
        <path fill="#E40063" d="M91.754 28.075c-.754-1.548-1.266-3.456-1.536-5.719L88.221 5.58l9.11-1.1 2.044 17.18c.184 1.537.586 2.642 1.21 3.32.623.676 1.562.938 2.82.786 1.257-.152 2.11-.63 2.557-1.437.446-.805.578-1.976.395-3.513l-2.045-17.181 9.108-1.1 1.997 16.777c.515 4.31-.2 7.659-2.142 10.039s-4.958 3.818-9.051 4.312c-1.954.237-3.735.206-5.344-.091a10.842 10.842 0 0 1-1.769-.499c-.03-.09-.057-.18-.095-.271a4.686 4.686 0 0 0-2.29-2.437 5.179 5.179 0 0 0-1.879-.493 11.463 11.463 0 0 1-1.093-1.796zM0 16.241l27.078-3.272.862 7.236L9.77 22.4l.562 4.73 10.753-1.3.863 7.235-10.754 1.301 1.15 9.66-8.907 1.078L0 16.24zm129.133 13.673l-8.586 1.037-3.437-28.863L129.41.6c2.197-.265 4.07-.237 5.615.08 1.546.32 2.825.848 3.838 1.586a7.228 7.228 0 0 1 2.308 2.777 11.556 11.556 0 0 1 1.02 3.609c.232 1.94.06 3.642-.511 5.105a9.07 9.07 0 0 1-2.71 3.731l7.256 10.36-9.307 1.124-5.677-8.704-3.211.387 1.102 9.258zm.404-22.439l-3.031.367.732 6.145 3.031-.367c1.357-.164 2.29-.536 2.8-1.118.512-.58.705-1.383.583-2.408-.122-1.024-.498-1.758-1.132-2.2-.631-.443-1.626-.583-2.983-.419zM37.264 38.699c-1.257-.9-2.28-2.123-3.067-3.667-.788-1.546-1.317-3.45-1.586-5.714L30.614 12.54l9.649-1.167 2.046 17.182c.183 1.535.6 2.641 1.256 3.313.655.673 1.647.928 2.98.767 1.332-.16 2.236-.646 2.715-1.456.478-.808.627-1.982.444-3.518l-2.046-17.181 9.65-1.167 1.998 16.777c.359 3.018.07 5.556-.836 7.635-.341.172-.63.342-.839.475l-.025.017-.026.017c-.777.529-1.5 1.14-2.163 1.822l-.214.226a15.348 15.348 0 0 0-1.962 2.645c-1.653.792-3.61 1.332-5.886 1.607-2.067.25-3.953.232-5.654-.055-1.701-.286-3.18-.88-4.437-1.78zm32.517-22.895l-7.985.965-.939-7.882 25.079-3.031.938 7.883-7.986.965L80.69 29.83a4.503 4.503 0 0 0-.458.162l-.011.005-.033.013c-.27.115-.471.227-.65.333-.567.344-.962.67-1.279.932l-.082.066c-.315.259-.658.542-.992.841a55.692 55.692 0 0 0-1.859 1.697 85.188 85.188 0 0 0-2.907 2.89l-.141.016-2.497-20.98z"/>
        <path fill="#E95B25" d="M102.197 45.506l6.489-.784 3.796 31.883-10.061 1.217-3.492-29.329a46.962 46.962 0 0 0 2.193-1.986c.372-.351.723-.683 1.075-1.001zm-99.1 11.977l27.7-3.348 1.038 8.707-8.82 1.067 2.758 23.173L15.712 88.3l-2.759-23.176-8.82 1.067-1.036-8.708zm133.348-16.116l9.397-1.135 3.795 31.883-8.554 1.035-15.817-14.531 1.93 16.207-9.396 1.137-3.796-31.883 8.642-1.045 15.72 14.452-1.92-16.12zm-53.572 6.474l1.385-.167L98.796 78.26 88.1 79.55l-2.106-4.954-10.554 1.276-.838 5.31-7.876.951-10.282 1.243-6.27-9.615-3.546.428 1.218 10.226-9.486 1.148-3.795-31.885 13.585-1.641a25.51 25.51 0 0 1 3.192-.197c.06.21.12.418.2.634.404 1.071 1.21 2.517 2.786 3.379.84.464 1.798.7 2.841.7a7.71 7.71 0 0 0 1.434-.141l.016-.002.016-.003c.611-.128 1.22-.32 1.852-.575.242.351.468.717.655 1.112.58 1.229.957 2.556 1.127 3.986.255 2.144.066 4.024-.565 5.639a10.012 10.012 0 0 1-2.993 4.123l6.082 8.681 6.387-30.12 5.617-.678c.043.049.084.098.133.149a3.546 3.546 0 0 0 2.512 1.052c.261 0 .525-.028.781-.086l.018-.004.018-.004c.698-.17 1.1-.44 1.316-.585l.03-.02.031-.021.028-.021a4.9 4.9 0 0 0 .591-.499c.248-.248.445-.477.618-.696zm-30.68 17.342c.564-.64.78-1.526.643-2.66-.134-1.13-.55-1.94-1.25-2.43-.698-.489-1.796-.643-3.295-.462l-3.349.404.81 6.788 3.348-.406c1.497-.18 2.529-.59 3.093-1.234zm24.546 2.514l6.073-.733-4.296-10.216-1.777 10.95z"/>
    </g>
</svg>